<svg xmlns="http://www.w3.org/2000/svg" width="12" height="9" viewBox="0 0 12 9">
    <path fill="#000" fill-rule="evenodd" d="M11.719 7.5c.078 0 .144.027.199.082a.271.271 0 0 1 .082.2v.937a.271.271 0 0 1-.082.199.271.271 0 0 1-.2.082H.282a.271.271 0 0 1-.199-.082.271.271 0 0 1-.082-.2V.282C0 .203.027.137.082.082A.271.271 0 0 1 .282 0h.937c.078 0 .144.027.199.082a.271.271 0 0 1 .082.2V7.5h10.219zM10.687.75c.157 0 .29.055.399.164.11.11.164.242.164.399v2.625c0 .156-.055.289-.164.398a.542.542 0 0 1-.399.164.542.542 0 0 1-.398-.164l-.773-.773-2.579 2.554a.253.253 0 0 1-.187.07.343.343 0 0 1-.211-.07L5.25 4.805 3.328 6.727a.291.291 0 0 1-.21.093.223.223 0 0 1-.188-.093l-.68-.68a.343.343 0 0 1-.07-.211c0-.078.023-.14.07-.188l2.79-2.765a.343.343 0 0 1 .21-.07c.078 0 .14.023.187.07L6.75 4.195l1.687-1.71-.773-.774a.542.542 0 0 1-.164-.398c0-.157.055-.29.164-.399A.542.542 0 0 1 8.062.75h2.625z"/>
</svg>
