<svg xmlns="http://www.w3.org/2000/svg" width="10" height="11" viewBox="0 0 10 11">
    <path fill="#000000" fill-rule="evenodd" d="M7.246 2.848A3.278 3.278 0 0 0 5 1.969c-.755 0-1.429.23-2.021.693A3.187 3.187 0 0 0 1.816 4.45a.235.235 0 0 1-.078.127.236.236 0 0 1-.156.049H.469a.223.223 0 0 1-.186-.088.221.221 0 0 1-.049-.185 4.772 4.772 0 0 1 .899-2.012A4.932 4.932 0 0 1 2.823.924 4.69 4.69 0 0 1 5 .406a4.75 4.75 0 0 1 3.34 1.348l.703-.703a.452.452 0 0 1 .332-.137c.13 0 .24.046.332.137a.452.452 0 0 1 .137.332V4c0 .13-.046.24-.137.332a.452.452 0 0 1-.332.137H6.758a.452.452 0 0 1-.332-.137A.452.452 0 0 1 6.289 4c0-.13.046-.24.137-.332l.82-.82zM.625 6.03h2.617c.13 0 .241.046.332.137a.452.452 0 0 1 .137.332c0 .13-.046.24-.137.332l-.82.82A3.278 3.278 0 0 0 5 8.531c.755 0 1.429-.23 2.021-.693A3.187 3.187 0 0 0 8.184 6.05a.235.235 0 0 1 .078-.127.236.236 0 0 1 .156-.049H9.53c.078 0 .14.03.186.088.045.058.062.12.049.185a4.772 4.772 0 0 1-.899 2.012 4.932 4.932 0 0 1-1.69 1.416A4.69 4.69 0 0 1 5 10.094a4.75 4.75 0 0 1-3.34-1.348l-.703.703a.452.452 0 0 1-.332.137.452.452 0 0 1-.332-.137.452.452 0 0 1-.137-.332V6.5c0-.13.046-.24.137-.332a.452.452 0 0 1 .332-.137z"/>
</svg>
