<svg xmlns="http://www.w3.org/2000/svg" width="18" height="18" viewBox="0 0 18 18">
    <path fill="#FFF" fill-rule="evenodd" d="M9 .531c1.57 0 3.023.393 4.36 1.178a8.81 8.81 0 0 1 3.181 3.182 8.452 8.452 0 0 1 1.178 4.359c0 1.57-.393 3.023-1.178 4.36a8.81 8.81 0 0 1-3.182 3.181A8.452 8.452 0 0 1 9 17.969a8.452 8.452 0 0 1-4.36-1.178 8.81 8.81 0 0 1-3.181-3.182A8.452 8.452 0 0 1 .281 9.25c0-1.57.393-3.023 1.178-4.36A8.81 8.81 0 0 1 4.641 1.71 8.452 8.452 0 0 1 9 .531zm0 3.867c-.398 0-.744.147-1.037.44-.293.293-.44.639-.44 1.037 0 .398.147.744.44 1.037.293.293.639.44 1.037.44.398 0 .744-.147 1.037-.44.293-.293.44-.639.44-1.037 0-.398-.147-.744-.44-1.037A1.418 1.418 0 0 0 9 4.398zm1.969 8.93v-.844a.407.407 0 0 0-.123-.298.407.407 0 0 0-.3-.123h-.421V8.547a.407.407 0 0 0-.123-.299.407.407 0 0 0-.299-.123h-2.25a.407.407 0 0 0-.299.123.407.407 0 0 0-.123.299v.844c0 .117.041.216.123.298a.407.407 0 0 0 .3.124h.421v2.25h-.422a.407.407 0 0 0-.299.123.407.407 0 0 0-.123.298v.844c0 .117.041.217.123.299a.407.407 0 0 0 .3.123h3.093a.407.407 0 0 0 .299-.123.407.407 0 0 0 .123-.299z"/>
</svg>
