<svg xmlns="http://www.w3.org/2000/svg" width="16" height="16" viewBox="0 0 16 16">
    <path fill="#FFF" fill-rule="evenodd" d="M2 0h12a2 2 0 0 1 2 2v12a2 2 0 0 1-2 2H2a2 2 0 0 1-2-2V2a2 2 0 0 1 2-2zm1.438 5.031v5.573a.616.616 0 0 1-.174.547L2 12.766v.208h3.57v-.208L4.306 11.15a.726.726 0 0 1-.174-.547V5.786l3.149 7.188h.372l2.678-7.188v5.73a.707.707 0 0 1-.013.169.382.382 0 0 1-.087.117l-.967.99V13h4.711v-.208l-.942-.964c-.083-.07-.116-.165-.1-.286V4.458c-.016-.121.017-.217.1-.286L14 3.208V3h-3.322L8.322 9.198 5.645 3H2.149v.208l1.115 1.407c.116.121.174.26.174.416z"/>
</svg>
