<svg xmlns="http://www.w3.org/2000/svg" width="16" height="16" viewBox="0 0 16 16">
    <path fill="#FFF" fill-rule="evenodd" d="M10.107 11.179a.362.362 0 0 1 .072.196c0 .06-.024.113-.072.16-.286.286-.708.477-1.268.572a4.967 4.967 0 0 1-1.678 0c-.56-.095-.982-.286-1.268-.571a.222.222 0 0 1-.072-.161c0-.06.024-.113.072-.16a.222.222 0 0 1 .16-.072c.06 0 .114.024.161.071.215.215.566.363 1.054.447a4.32 4.32 0 0 0 1.464 0c.488-.084.84-.244 1.054-.482a.354.354 0 0 1 .16-.036c.06 0 .114.012.161.036zm-3.25-1.893a.87.87 0 0 1-.286.66.958.958 0 0 1-.678.268.898.898 0 0 1-.66-.268.898.898 0 0 1-.269-.66c0-.262.09-.488.268-.679a.87.87 0 0 1 .66-.286c.263 0 .489.096.68.286.19.19.285.417.285.679zm3.25-.965a.87.87 0 0 1 .66.286c.18.19.269.417.269.679 0 .262-.09.482-.268.66a.898.898 0 0 1-.66.268.958.958 0 0 1-.68-.268.87.87 0 0 1-.285-.66c0-.262.095-.488.286-.679a.927.927 0 0 1 .678-.286zM16 1.714v12.572c0 .476-.167.88-.5 1.214-.333.333-.738.5-1.214.5H1.714c-.476 0-.88-.167-1.214-.5a1.653 1.653 0 0 1-.5-1.214V1.714C0 1.238.167.834.5.5.833.167 1.238 0 1.714 0h12.572c.476 0 .88.167 1.214.5.333.333.5.738.5 1.214zM12.429 6.75c-.334 0-.631.119-.893.357-.929-.643-2.036-.976-3.322-1l.679-3.036 2.107.5a.87.87 0 0 0 .286.661c.19.179.416.268.678.268.262 0 .488-.09.679-.268a.87.87 0 0 0 .286-.66.927.927 0 0 0-.286-.68.927.927 0 0 0-.679-.285.88.88 0 0 0-.5.143 1.143 1.143 0 0 0-.357.393L8.75 2.607c-.048-.024-.095-.018-.143.018a.32.32 0 0 0-.107.16l-.714 3.322C6.5 6.155 5.405 6.5 4.5 7.143a1.27 1.27 0 0 0-.929-.393c-.428 0-.761.155-1 .464a1.28 1.28 0 0 0-.25 1.054c.072.393.298.684.679.875-.048.19-.071.393-.071.607 0 .667.232 1.28.696 1.84.464.559 1.083 1 1.857 1.32a6.546 6.546 0 0 0 2.536.483c.917 0 1.762-.16 2.536-.482.773-.322 1.386-.762 1.839-1.322.452-.56.678-1.172.678-1.839.024-.238 0-.44-.071-.607.381-.19.607-.482.679-.875a1.28 1.28 0 0 0-.25-1.054c-.239-.31-.572-.464-1-.464z"/>
</svg>
