<svg xmlns="http://www.w3.org/2000/svg" width="16" height="16" viewBox="0 0 16 16">
    <path fill="#FFF" fill-rule="evenodd" d="M14.286 0c.476 0 .88.167 1.214.5.333.333.5.738.5 1.214v12.572c0 .476-.167.88-.5 1.214-.333.333-.738.5-1.214.5H1.714c-.476 0-.88-.167-1.214-.5a1.653 1.653 0 0 1-.5-1.214V1.714C0 1.238.167.834.5.5.833.167 1.238 0 1.714 0h12.572zm-1.75 5.679a5.196 5.196 0 0 0 1.178-1.215c-.452.19-.904.31-1.357.357a2.4 2.4 0 0 0 1.036-1.285 4.441 4.441 0 0 1-1.5.571 2.173 2.173 0 0 0-1.679-.75 2.3 2.3 0 0 0-1.303.393 2.368 2.368 0 0 0-.875 1.054c-.19.44-.226.922-.107 1.446a6.403 6.403 0 0 1-2.715-.732 7.047 7.047 0 0 1-2.143-1.732 2.216 2.216 0 0 0-.321 1.16A2.326 2.326 0 0 0 3.821 6.93a2.439 2.439 0 0 1-1.071-.322v.036c0 .571.179 1.071.536 1.5.357.428.81.702 1.357.821-.333.072-.69.084-1.072.036.143.476.417.863.822 1.16.405.298.857.447 1.357.447-.857.667-1.821 1-2.893 1h-.571a6.63 6.63 0 0 0 3.607 1.036c1.357 0 2.571-.345 3.643-1.036.952-.619 1.702-1.464 2.25-2.536.5-1 .75-2.035.75-3.107V5.68z"/>
</svg>
